<svg width="25" height="24" viewBox="0 0 25 24" fill="none" xmlns="http://www.w3.org/2000/svg">
<path d="M6.00033 18.6667H8.66699V12H6.00033V18.6667ZM16.667 18.6667H19.3337V5.33333H16.667V18.6667ZM11.3337 18.6667H14.0003V14.6667H11.3337V18.6667ZM11.3337 12H14.0003V9.33333H11.3337V12ZM3.33366 24C2.60033 24 1.97255 23.7389 1.45033 23.2167C0.928103 22.6944 0.666992 22.0667 0.666992 21.3333V2.66667C0.666992 1.93333 0.928103 1.30556 1.45033 0.783333C1.97255 0.261111 2.60033 0 3.33366 0H22.0003C22.7337 0 23.3614 0.261111 23.8837 0.783333C24.4059 1.30556 24.667 1.93333 24.667 2.66667V21.3333C24.667 22.0667 24.4059 22.6944 23.8837 23.2167C23.3614 23.7389 22.7337 24 22.0003 24H3.33366ZM3.33366 21.3333H22.0003V2.66667H3.33366V21.3333Z" fill="#A82222"/>
</svg>
