<svg width="20" height="20" viewBox="0 0 20 20" fill="none" xmlns="http://www.w3.org/2000/svg">
<path d="M10.0003 10.0001C8.71699 10.0001 7.61838 9.54314 6.70449 8.62925C5.7906 7.71536 5.33366 6.61675 5.33366 5.33341C5.33366 4.05008 5.7906 2.95147 6.70449 2.03758C7.61838 1.12369 8.71699 0.666748 10.0003 0.666748C11.2837 0.666748 12.3823 1.12369 13.2962 2.03758C14.21 2.95147 14.667 4.05008 14.667 5.33341C14.667 6.61675 14.21 7.71536 13.2962 8.62925C12.3823 9.54314 11.2837 10.0001 10.0003 10.0001ZM0.666992 19.3334V16.0667C0.666992 15.4056 0.837131 14.798 1.17741 14.2438C1.51769 13.6897 1.96977 13.2667 2.53366 12.9751C3.73921 12.3723 4.96421 11.9202 6.20866 11.6188C7.4531 11.3174 8.71699 11.1667 10.0003 11.1667C11.2837 11.1667 12.5475 11.3174 13.792 11.6188C15.0364 11.9202 16.2614 12.3723 17.467 12.9751C18.0309 13.2667 18.483 13.6897 18.8232 14.2438C19.1635 14.798 19.3337 15.4056 19.3337 16.0667V19.3334H0.666992ZM3.00033 17.0001H17.0003V16.0667C17.0003 15.8529 16.9469 15.6584 16.8399 15.4834C16.733 15.3084 16.592 15.1723 16.417 15.0751C15.367 14.5501 14.3073 14.1563 13.2378 13.8938C12.1684 13.6313 11.0892 13.5001 10.0003 13.5001C8.91144 13.5001 7.83227 13.6313 6.76283 13.8938C5.69338 14.1563 4.63366 14.5501 3.58366 15.0751C3.40866 15.1723 3.26769 15.3084 3.16074 15.4834C3.0538 15.6584 3.00033 15.8529 3.00033 16.0667V17.0001ZM10.0003 7.66675C10.642 7.66675 11.1913 7.43828 11.6482 6.98133C12.1052 6.52439 12.3337 5.97508 12.3337 5.33341C12.3337 4.69175 12.1052 4.14244 11.6482 3.6855C11.1913 3.22855 10.642 3.00008 10.0003 3.00008C9.35866 3.00008 8.80935 3.22855 8.35241 3.6855C7.89546 4.14244 7.66699 4.69175 7.66699 5.33341C7.66699 5.97508 7.89546 6.52439 8.35241 6.98133C8.80935 7.43828 9.35866 7.66675 10.0003 7.66675Z" fill="#A7A6A6"/>
</svg>
