<svg width="28" height="28" viewBox="0 0 28 28" fill="none" xmlns="http://www.w3.org/2000/svg">
<path d="M14.0003 14C12.717 14 11.6184 13.543 10.7045 12.6291C9.7906 11.7152 9.33366 10.6166 9.33366 9.33329C9.33366 8.04996 9.7906 6.95135 10.7045 6.03746C11.6184 5.12357 12.717 4.66663 14.0003 4.66663C15.2837 4.66663 16.3823 5.12357 17.2962 6.03746C18.21 6.95135 18.667 8.04996 18.667 9.33329C18.667 10.6166 18.21 11.7152 17.2962 12.6291C16.3823 13.543 15.2837 14 14.0003 14ZM4.66699 23.3333V20.0666C4.66699 19.4055 4.83713 18.7979 5.17741 18.2437C5.51769 17.6895 5.96977 17.2666 6.53366 16.975C7.73921 16.3722 8.96421 15.9201 10.2087 15.6187C11.4531 15.3173 12.717 15.1666 14.0003 15.1666C15.2837 15.1666 16.5475 15.3173 17.792 15.6187C19.0364 15.9201 20.2614 16.3722 21.467 16.975C22.0309 17.2666 22.483 17.6895 22.8232 18.2437C23.1635 18.7979 23.3337 19.4055 23.3337 20.0666V23.3333H4.66699ZM7.00033 21H21.0003V20.0666C21.0003 19.8527 20.9469 19.6583 20.8399 19.4833C20.733 19.3083 20.592 19.1722 20.417 19.075C19.367 18.55 18.3073 18.1562 17.2378 17.8937C16.1684 17.6312 15.0892 17.5 14.0003 17.5C12.9114 17.5 11.8323 17.6312 10.7628 17.8937C9.69338 18.1562 8.63366 18.55 7.58366 19.075C7.40866 19.1722 7.26769 19.3083 7.16074 19.4833C7.0538 19.6583 7.00033 19.8527 7.00033 20.0666V21ZM14.0003 11.6666C14.642 11.6666 15.1913 11.4382 15.6482 10.9812C16.1052 10.5243 16.3337 9.97496 16.3337 9.33329C16.3337 8.69163 16.1052 8.14232 15.6482 7.68538C15.1913 7.22843 14.642 6.99996 14.0003 6.99996C13.3587 6.99996 12.8094 7.22843 12.3524 7.68538C11.8955 8.14232 11.667 8.69163 11.667 9.33329C11.667 9.97496 11.8955 10.5243 12.3524 10.9812C12.8094 11.4382 13.3587 11.6666 14.0003 11.6666Z" fill="#A82222"/>
</svg>
