<svg width="24" height="24" viewBox="0 0 24 24" fill="none" xmlns="http://www.w3.org/2000/svg">
<path d="M17.6842 24C15.9368 24 14.4474 23.4429 13.2158 22.3286C11.9842 21.2143 11.3684 19.8667 11.3684 18.2857C11.3684 16.7048 11.9842 15.3571 13.2158 14.2429C14.4474 13.1286 15.9368 12.5714 17.6842 12.5714C19.4316 12.5714 20.9211 13.1286 22.1526 14.2429C23.3842 15.3571 24 16.7048 24 18.2857C24 19.8667 23.3842 21.2143 22.1526 22.3286C20.9211 23.4429 19.4316 24 17.6842 24ZM19.8 21L20.6842 20.2L18.3158 18.0571V14.8571H17.0526V18.5143L19.8 21ZM2.52632 22.8571C1.83158 22.8571 1.23684 22.6333 0.742105 22.1857C0.247368 21.7381 0 21.2 0 20.5714V4.57143C0 3.94286 0.247368 3.40476 0.742105 2.95714C1.23684 2.50952 1.83158 2.28571 2.52632 2.28571H7.8C8.03158 1.61905 8.48421 1.07143 9.15789 0.642857C9.83158 0.214286 10.5684 0 11.3684 0C12.2105 0 12.9632 0.214286 13.6263 0.642857C14.2895 1.07143 14.7368 1.61905 14.9684 2.28571H20.2105C20.9053 2.28571 21.5 2.50952 21.9947 2.95714C22.4895 3.40476 22.7368 3.94286 22.7368 4.57143V11.7143C22.3579 11.4667 21.9579 11.2571 21.5368 11.0857C21.1158 10.9143 20.6737 10.7619 20.2105 10.6286V4.57143H17.6842V8H5.05263V4.57143H2.52632V20.5714H9.22105C9.36842 20.9905 9.53684 21.3905 9.72632 21.7714C9.91579 22.1524 10.1474 22.5143 10.4211 22.8571H2.52632ZM11.3684 4.57143C11.7263 4.57143 12.0263 4.46191 12.2684 4.24286C12.5105 4.02381 12.6316 3.75238 12.6316 3.42857C12.6316 3.10476 12.5105 2.83333 12.2684 2.61429C12.0263 2.39524 11.7263 2.28571 11.3684 2.28571C11.0105 2.28571 10.7105 2.39524 10.4684 2.61429C10.2263 2.83333 10.1053 3.10476 10.1053 3.42857C10.1053 3.75238 10.2263 4.02381 10.4684 4.24286C10.7105 4.46191 11.0105 4.57143 11.3684 4.57143Z" fill="#A7A6A6"/>
</svg>
