<svg width="25" height="24" viewBox="0 0 25 24" fill="none" xmlns="http://www.w3.org/2000/svg">
<path d="M18.0172 24C16.2698 24 14.7804 23.4429 13.5488 22.3286C12.3172 21.2143 11.7014 19.8667 11.7014 18.2857C11.7014 16.7048 12.3172 15.3571 13.5488 14.2429C14.7804 13.1286 16.2698 12.5714 18.0172 12.5714C19.7646 12.5714 21.2541 13.1286 22.4856 14.2429C23.7172 15.3571 24.333 16.7048 24.333 18.2857C24.333 19.8667 23.7172 21.2143 22.4856 22.3286C21.2541 23.4429 19.7646 24 18.0172 24ZM20.133 21L21.0172 20.2L18.6488 18.0571V14.8571H17.3856V18.5143L20.133 21ZM2.85932 22.8571C2.16459 22.8571 1.56985 22.6333 1.07511 22.1857C0.580376 21.7381 0.333008 21.2 0.333008 20.5714V4.57143C0.333008 3.94286 0.580376 3.40476 1.07511 2.95714C1.56985 2.50952 2.16459 2.28571 2.85932 2.28571H8.13301C8.36459 1.61905 8.81722 1.07143 9.4909 0.642857C10.1646 0.214286 10.9014 0 11.7014 0C12.5435 0 13.2962 0.214286 13.9593 0.642857C14.6225 1.07143 15.0698 1.61905 15.3014 2.28571H20.5435C21.2383 2.28571 21.833 2.50952 22.3277 2.95714C22.8225 3.40476 23.0698 3.94286 23.0698 4.57143V11.7143C22.6909 11.4667 22.2909 11.2571 21.8699 11.0857C21.4488 10.9143 21.0067 10.7619 20.5435 10.6286V4.57143H18.0172V8H5.38564V4.57143H2.85932V20.5714H9.55406C9.70143 20.9905 9.86985 21.3905 10.0593 21.7714C10.2488 22.1524 10.4804 22.5143 10.7541 22.8571H2.85932ZM11.7014 4.57143C12.0593 4.57143 12.3593 4.46191 12.6014 4.24286C12.8435 4.02381 12.9646 3.75238 12.9646 3.42857C12.9646 3.10476 12.8435 2.83333 12.6014 2.61429C12.3593 2.39524 12.0593 2.28571 11.7014 2.28571C11.3435 2.28571 11.0435 2.39524 10.8014 2.61429C10.5593 2.83333 10.4383 3.10476 10.4383 3.42857C10.4383 3.75238 10.5593 4.02381 10.8014 4.24286C11.0435 4.46191 11.3435 4.57143 11.7014 4.57143Z" fill="#A82222"/>
</svg>
